<?xml version="1.0" standalone="no"?>
<!DOCTYPE svg PUBLIC "-//W3C//DTD SVG 20010904//EN"
 "http://www.w3.org/TR/2001/REC-SVG-20010904/DTD/svg10.dtd">
<svg version="1.0" xmlns="http://www.w3.org/2000/svg"
 width="188.000000pt" height="188.000000pt" viewBox="0 0 188.000000 188.000000"
 preserveAspectRatio="xMidYMid meet">
<metadata>
Created by potrace 1.14, written by Peter Selinger 2001-2017
</metadata>
<g transform="translate(0.000000,188.000000) scale(0.100000,-0.100000)"
fill="#000000" stroke="none">
<path d="M204 1608 c-4 -7 -9 -46 -11 -87 -1 -42 -6 -110 -10 -151 -8 -89 -8
-93 0 -325 6 -145 12 -198 32 -272 77 -288 273 -487 545 -553 106 -26 319 -22
448 9 206 48 365 156 439 299 27 52 36 77 49 137 6 26 6 173 0 201 -2 12 -7
38 -10 59 -8 50 -76 212 -117 281 -86 142 -264 254 -396 248 -74 -3 -147 -29
-163 -59 -20 -37 -33 -30 -26 13 12 78 17 153 11 171 -4 15 -13 19 -37 16 -44
-6 -136 -34 -178 -54 -28 -14 -59 -17 -166 -15 -127 3 -136 4 -264 48 -73 25
-134 46 -136 46 -1 0 -6 -5 -10 -12z m787 -280 c1 -13 1 -27 0 -32 -3 -16 27
-71 50 -90 26 -22 136 -73 170 -80 90 -16 169 -67 210 -134 29 -48 32 -61 32
-130 0 -86 -21 -141 -76 -199 -49 -53 -77 -41 -77 31 0 51 -28 131 -58 166
-15 18 -47 47 -71 66 -24 19 -41 34 -37 34 4 0 -21 25 -55 55 -59 52 -85 63
-101 40 -14 -19 -8 -72 13 -120 20 -45 16 -73 -7 -57 -6 4 -25 29 -44 56 l-33
49 23 65 c21 59 24 88 18 192 -2 44 17 110 33 110 5 0 10 -10 10 -22z m-464
-29 c85 -53 75 -157 -19 -199 -52 -23 -86 -17 -120 20 -23 24 -28 40 -28 78 0
43 5 53 37 85 43 43 78 48 130 16z m273 6 c37 -19 50 -43 54 -100 5 -78 -44
-118 -111 -90 -43 18 -59 37 -74 89 -24 87 49 143 131 101z"/>
<path d="M454 1290 c-27 -10 -32 -25 -29 -74 1 -27 9 -45 25 -58 62 -50 117 9
83 90 -8 20 -16 38 -17 38 -9 8 -46 11 -62 4z"/>
<path d="M718 1283 c-40 -44 -16 -127 39 -138 29 -5 46 17 48 66 3 64 -53 110
-87 72z"/>
</g>
</svg>
